<?xml version="1.0" encoding="utf-8"?><svg viewBox="0 0 1920 1920" xmlns="http://www.w3.org/2000/svg" xmlns:xlink="http://www.w3.org/1999/xlink"><style>:root>svg{display:none}:root>svg:target{display:block}</style><svg viewBox="0 0 1920 1920" id="facebook" xmlns="http://www.w3.org/2000/svg"><path d="M1168.737 487.897c44.672-41.401 113.824-36.889 118.9-36.663l289.354-.113 6.317-417.504L1539.65 22.9C1511.675 16.02 1426.053 0 1237.324 0 901.268 0 675.425 235.206 675.425 585.137v93.97H337v451.234h338.425V1920h451.234v-789.66h356.7l62.045-451.233H1126.66v-69.152c0-54.937 14.214-96.112 42.078-122.058" fill-rule="evenodd"/></svg><svg viewBox="0 0 32 32" id="instagram" xmlns="http://www.w3.org/2000/svg"><path d="M25.805 7.996v.001a1.8 1.8 0 11-1.799-1.799 1.8 1.8 0 011.799 1.798zM16 20.999A4.999 4.999 0 1120.999 16v.001a4.997 4.997 0 01-4.997 4.997h-.001zM16 8.3a7.7 7.7 0 107.7 7.7v-.001a7.7 7.7 0 00-7.7-7.7h-.001zm0-4.596c4.003 0 4.48.02 6.061.089a8.237 8.237 0 012.84.538l-.057-.019a4.964 4.964 0 012.835 2.812l.012.034c.316.826.504 1.781.516 2.778v.005c.071 1.582.087 2.057.087 6.061s-.019 4.48-.092 6.061a8.434 8.434 0 01-.545 2.841l.019-.058a4.786 4.786 0 01-1.123 1.726l-.001.001a4.684 4.684 0 01-1.692 1.109l-.032.011a8.17 8.17 0 01-2.788.516h-.005c-1.592.071-2.061.087-6.072.087-4.013 0-4.481-.019-6.072-.092a8.503 8.503 0 01-2.853-.545l.059.019a4.658 4.658 0 01-1.722-1.122l-.001-.001a4.562 4.562 0 01-1.114-1.693l-.01-.031a8.349 8.349 0 01-.525-2.785v-.008c-.056-1.575-.076-2.061-.076-6.053 0-3.994.02-4.481.076-6.075a8.485 8.485 0 01.544-2.85l-.019.059a4.466 4.466 0 011.123-1.724l.002-.002a4.446 4.446 0 011.692-1.112l.031-.01a8.131 8.131 0 012.768-.526h.007c1.593-.056 2.062-.075 6.072-.075zm0-2.7c-4.074 0-4.582.019-6.182.09a11.032 11.032 0 00-3.716.723l.076-.025A7.387 7.387 0 003.522 3.52l-.001.001a7.327 7.327 0 00-1.713 2.607l-.017.05a10.793 10.793 0 00-.697 3.628v.012c-.075 1.6-.09 2.108-.09 6.182s.019 4.582.09 6.182c.028 1.315.282 2.562.723 3.716l-.025-.076a7.709 7.709 0 004.334 4.368l.052.018c1.078.415 2.326.669 3.628.697h.012c1.6.075 2.108.09 6.182.09s4.582-.019 6.182-.09a11.057 11.057 0 003.716-.723l-.076.026a7.709 7.709 0 004.368-4.334l.018-.052c.416-1.078.669-2.326.697-3.628v-.012c.075-1.6.09-2.108.09-6.182s-.019-4.582-.09-6.182a11.057 11.057 0 00-.723-3.716l.026.076a7.39 7.39 0 00-1.729-2.656l-.001-.001a7.327 7.327 0 00-2.607-1.713l-.05-.017a10.793 10.793 0 00-3.628-.697h-.012c-1.6-.075-2.108-.09-6.182-.09z"/></svg><svg viewBox="0 0 32 32" id="tiktok" xmlns="http://www.w3.org/2000/svg"><path d="M16.656 1.029c1.637-.025 3.262-.012 4.886-.025a7.762 7.762 0 002.189 5.213l-.002-.002A8.77 8.77 0 0029 8.45l.028.002v5.036a13.327 13.327 0 01-5.331-1.247l.082.034a15.385 15.385 0 01-2.077-1.196l.052.034c-.012 3.649.012 7.298-.025 10.934a9.513 9.513 0 01-1.707 4.954l.02-.031c-1.652 2.366-4.328 3.919-7.371 4.011h-.014a9.071 9.071 0 01-5.139-1.31l.04.023C5.05 28.185 3.32 25.603 3 22.6l-.004-.041a23.163 23.163 0 01-.012-1.862c.49-4.779 4.494-8.476 9.361-8.476.547 0 1.083.047 1.604.136l-.056-.008c.025 1.849-.05 3.699-.05 5.548a4.29 4.29 0 00-5.465 2.619l-.009.03c-.133.427-.21.918-.21 1.426 0 .206.013.41.037.61l-.002-.024a4.26 4.26 0 004.382 3.586h-.009a4.198 4.198 0 003.451-1.994l.01-.018c.267-.372.45-.822.511-1.311l.001-.014c.125-2.237.075-4.461.087-6.698.012-5.036-.012-10.06.025-15.083z"/></svg><svg viewBox="0 -2 20 20" id="twitter" xmlns="http://www.w3.org/2000/svg"><path d="M6.29 16c7.547 0 11.675-6.156 11.675-11.495 0-.175 0-.349-.012-.522A8.265 8.265 0 0020 1.89a8.273 8.273 0 01-2.356.637A4.07 4.07 0 0019.448.293a8.303 8.303 0 01-2.606.98 4.153 4.153 0 00-5.806-.175 4.006 4.006 0 00-1.187 3.86A11.717 11.717 0 011.392.738 4.005 4.005 0 002.663 6.13 4.122 4.122 0 01.8 5.625v.051C.801 7.6 2.178 9.255 4.092 9.636a4.144 4.144 0 01-1.852.069c.537 1.646 2.078 2.773 3.833 2.806A8.315 8.315 0 010 14.185a11.754 11.754 0 006.29 1.812" fill-rule="evenodd"/></svg><svg viewBox="0 -3 20 20" id="youtube" xmlns="http://www.w3.org/2000/svg"><path d="M7.988 9.586V3.974c1.993.938 3.536 1.843 5.36 2.82-1.505.834-3.367 1.77-5.36 2.792m11.103-8.403c-.344-.453-.93-.805-1.553-.922-1.833-.348-13.267-.349-15.099 0-.5.094-.945.32-1.328.673C-.5 2.429.005 10.452.393 11.75c.164.562.375.968.64 1.235.343.352.812.594 1.351.703 1.51.312 9.284.486 15.122.047a2.62 2.62 0 001.39-.712c1.49-1.49 1.388-9.962.195-11.841" fill-rule="evenodd"/></svg></svg>